<?xml version="1.0" encoding="UTF-8"?>
<svg xmlns="http://www.w3.org/2000/svg" xmlns:xlink="http://www.w3.org/1999/xlink" width="32pt" height="32pt" viewBox="0 0 32 32" version="1.1">
<g id="surface1">
<path style=" stroke:none;fill-rule:nonzero;fill:rgb(100%,100%,100%);fill-opacity:1;" d="M 32 19 C 32 18.199219 31.679688 17.453125 31.132812 16.902344 C 31.753906 16.21875 32.070312 15.304688 31.984375 14.355469 C 31.828125 12.660156 30.300781 11.332031 28.507812 11.332031 L 20.273438 11.332031 C 20.679688 10.09375 21.332031 7.824219 21.332031 6 C 21.332031 3.109375 18.875 0.667969 17.332031 0.667969 C 15.949219 0.667969 14.957031 1.445312 14.917969 1.480469 C 14.757812 1.605469 14.667969 1.796875 14.667969 2 L 14.667969 6.519531 L 10.824219 14.839844 L 10.667969 14.921875 L 10.667969 14.667969 C 10.667969 14.296875 10.367188 14 10 14 L 3.332031 14 C 1.496094 14 0 15.496094 0 17.332031 L 0 28 C 0 29.839844 1.496094 31.332031 3.332031 31.332031 L 7.332031 31.332031 C 8.773438 31.332031 10.007812 30.414062 10.46875 29.128906 C 11.578125 29.699219 13.074219 30 14 30 L 26.238281 30 C 27.691406 30 28.960938 29.019531 29.261719 27.671875 C 29.414062 26.976562 29.324219 26.277344 29.019531 25.667969 C 30.003906 25.171875 30.667969 24.15625 30.667969 23 C 30.667969 22.527344 30.558594 22.074219 30.355469 21.667969 C 31.339844 21.171875 32 20.15625 32 19 Z M 29.1875 20.644531 C 28.929688 20.675781 28.714844 20.851562 28.628906 21.097656 C 28.550781 21.34375 28.617188 21.613281 28.808594 21.792969 C 29.144531 22.113281 29.332031 22.542969 29.332031 23 C 29.332031 23.839844 28.699219 24.546875 27.855469 24.644531 C 27.597656 24.675781 27.382812 24.851562 27.296875 25.097656 C 27.21875 25.34375 27.285156 25.613281 27.476562 25.792969 C 27.914062 26.207031 28.089844 26.785156 27.957031 27.382812 C 27.792969 28.128906 27.070312 28.667969 26.238281 28.667969 L 14 28.667969 C 12.917969 28.667969 11.101562 28.160156 10.472656 27.527344 C 10.28125 27.339844 9.992188 27.28125 9.746094 27.382812 C 9.496094 27.488281 9.332031 27.730469 9.332031 28 C 9.332031 29.101562 8.4375 30 7.332031 30 L 3.332031 30 C 2.230469 30 1.332031 29.101562 1.332031 28 L 1.332031 17.332031 C 1.332031 16.230469 2.230469 15.332031 3.332031 15.332031 L 9.332031 15.332031 L 9.332031 16 C 9.332031 16.230469 9.453125 16.445312 9.652344 16.566406 C 9.84375 16.683594 10.089844 16.699219 10.296875 16.597656 L 11.632812 15.929688 C 11.765625 15.863281 11.875 15.75 11.9375 15.613281 L 15.9375 6.945312 C 15.980469 6.859375 16 6.761719 16 6.667969 L 16 2.359375 C 16.277344 2.207031 16.757812 2 17.332031 2 C 18.0625 2 20 3.816406 20 6 C 20 8.347656 18.722656 11.730469 18.710938 11.761719 C 18.632812 11.964844 18.660156 12.199219 18.785156 12.378906 C 18.910156 12.558594 19.113281 12.667969 19.332031 12.667969 L 28.507812 12.667969 C 29.621094 12.667969 30.5625 13.460938 30.65625 14.480469 C 30.726562 15.238281 30.363281 15.960938 29.707031 16.367188 C 29.503906 16.492188 29.382812 16.71875 29.390625 16.957031 C 29.402344 17.199219 29.539062 17.414062 29.753906 17.527344 C 30.316406 17.8125 30.667969 18.378906 30.667969 19 C 30.667969 19.839844 30.03125 20.546875 29.1875 20.644531 Z M 29.1875 20.644531 "/>
<path style=" stroke:none;fill-rule:nonzero;fill:rgb(100%,100%,100%);fill-opacity:1;" d="M 10 15.332031 C 9.632812 15.332031 9.332031 15.632812 9.332031 16 L 9.332031 28 C 9.332031 28.367188 9.632812 28.667969 10 28.667969 C 10.367188 28.667969 10.667969 28.367188 10.667969 28 L 10.667969 16 C 10.667969 15.632812 10.367188 15.332031 10 15.332031 Z M 10 15.332031 "/>
</g>
</svg>
